inDegrees=yes
name=ik_S48_A03_T02
DataType=double
version=3
OpenSimVersion=4.3-2021-08-27-4bc7ad9
endheader
time	pelvis_tilt	pelvis_list	pelvis_rotation	pelvis_tx	pelvis_ty	pelvis_tz	hip_flexion_r	hip_adduction_r	hip_rotation_r	knee_angle_r	knee_angle_r_beta	ankle_angle_r	subtalar_angle_r	mtp_angle_r	hip_flexion_l	hip_adduction_l	hip_rotation_l	knee_angle_l	knee_angle_l_beta	ankle_angle_l	subtalar_angle_l	mtp_angle_l	lumbar_extension	lumbar_bending	lumbar_rotation	arm_flex_r	arm_add_r	arm_rot_r	elbow_flex_r	pro_sup_r	wrist_flex_r	wrist_dev_r	arm_flex_l	arm_add_l	arm_rot_l	elbow_flex_l	pro_sup_l	wrist_flex_l	wrist_dev_l
35.61999999999997	2.132239646644026	-0.4691882398988075	-80.34812470690197	0	0.9399999999999999	0	14.27138110916121	-4.907649811567566	5.04046024740525	9.95255895207158	0.1737049227124856	0	0	0	-5.143912235004763	4.133359078211753	6.69892502214014	-5.710643150611554	-0.09966952538463406	0	0	0	0	0	0	40.23610294956475	-40.23610294956475	4.905073049750492	83.71019644114138	85.09492722078217	0	0	40.23610294956475	-40.23610294956475	4.905073049750492	83.71019644114138	85.09492722076465	0	0
35.63999999999997	2.20593796185619	-0.2964134554512803	-80.03663136821525	0	0.9399999999999999	0	14.56965046922331	-4.911038188519917	4.638428769405103	6.085905210664571	0.1062190838903759	0	0	0	-6.190261494684301	4.276072785665044	7.360681400721224	-5.062274068358656	-0.08835335013118704	0	0	0	0	0	0	40.23814334915703	-40.23814334915703	4.905154143051957	83.71129847892738	85.09484612748422	0	0	40.23814334915703	-40.23814334915703	4.905154143051957	83.71129847892738	85.0948461274667	0	0
35.65999999999998	2.284507571472283	-0.1176504001420435	-79.76796792711018	0	0.9399999999999999	0	14.76611949694904	-4.639439661165518	3.832616839106461	2.447265145931237	0.04271283446579959	0	0	0	-6.619264184243423	4.430227441735462	7.683039386961426	-4.623916381964881	-0.08070256520219091	0	0	0	0	0	0	40.23994678319804	-40.23994678319804	4.905225988957405	83.71227484804992	85.09477428158186	0	0	40.23994678319804	-40.23994678319804	4.905225988957405	83.71227484804992	85.09477428156436	0	0
35.67999999999998	2.304006323228854	-0.06135339196846018	-79.64451261357601	0	0.9399999999999999	0	14.64165917424164	-4.368440517480357	2.872230819901426	-0.6961799244715348	-0.01215063186831373	0	0	0	-7.1496548829136	4.485209545382249	7.732762618805993	-4.140424733504246	-0.07226404403065786	0	0	0	0	0	0	40.2420881287598	-40.2420881287598	4.905311588280733	83.71343812474724	85.09468868226227	0	0	40.2420881287598	-40.2420881287598	4.905311588280733	83.71343812474724	85.09468868224477	0	0
35.69999999999998	2.368581779835509	0.07746602994411383	-79.34338706551553	0	0.9399999999999999	0	14.61723326794963	-4.252479850301756	2.181046352787675	-3.15148795942862	-0.0550038412289869	0	0	0	-7.656888031542426	4.572319276008011	7.864301908723839	-3.639557825894557	-0.06352226737858654	0	0	0	0	0	0	40.24387712102088	-40.24387712102088	4.905382769355431	83.71440545794287	85.09461750119071	0	0	40.24387712102088	-40.24387712102088	4.905382769355431	83.71440545794287	85.0946175011732	0	0
35.71999999999998	2.362875160774244	0.1735456682142125	-79.05684181335467	0	0.9399999999999999	0	14.64732572856805	-3.939249043134051	2.268388507229092	-4.607294370221345	-0.08041245636896105	0	0	0	-8.135834292039011	4.563194101142901	7.948360919483417	-3.038312634452446	-0.05302855917613807	0	0	0	0	0	0	40.24479472579013	-40.24479472579013	4.90541947676966	83.71490430401312	85.09458079377808	0	0	40.24479472579013	-40.24479472579013	4.90541947676966	83.71490430401312	85.0945807937606	0	0
35.73999999999999	2.264502005389347	0.1973339901498038	-78.75262531165917	0	0.9399999999999999	0	14.659246894424	-3.921740835862061	1.945598076488397	-4.606060563516245	-0.08039092237962386	0	0	0	-8.622684238117262	4.472115344577048	8.071848295888691	-2.880620626836371	-0.05027631443915759	0	0	0	0	0	0	40.24518307228844	-40.24518307228844	4.905434929640108	83.71511430469077	85.09456534090832	0	0	40.24518307228844	-40.24518307228844	4.905434929640108	83.71511430469077	85.09456534089085	0	0
35.75999999999999	2.211811770274919	0.1671537083701525	-78.60077414462265	0	0.9399999999999999	0	14.60436426091449	-3.621262493088732	2.761150940243362	-5.094831832357936	-0.08892159031006175	0	0	0	-9.065578618946995	4.44116832878457	8.030458681997054	-1.949419305207951	-0.03402378537781899	0	0	0	0	0	0	40.24630590282836	-40.24630590282836	4.905479904635995	83.71572550577373	85.09452036591436	0	0	40.24630590282836	-40.24630590282836	4.905479904635995	83.71572550577373	85.09452036589694	0	0
35.77999999999999	1.850866770526018	0.02653933913509332	-77.81829160075107	0	0.9399999999999999	0	14.4846869485628	-3.416292408105784	1.966896508118037	-4.464410626641398	-0.07791866459591568	0	0	0	-9.570990873728006	3.957047738466881	8.276790700423424	-0.9236773170623745	-0.01612121040872603	0	0	0	0	0	0	40.24709358961417	-40.24709358961417	4.905511368621648	83.7161530943021	85.09448890193009	0	0	40.24709358961417	-40.24709358961417	4.905511368621648	83.7161530943021	85.09448890191267	0	0
35.8	1.648582259185414	-0.007605164341846122	-77.26269108361791	0	0.9399999999999999	0	13.27592836244467	-4.082563149892268	4.659288390391469	-4.963739689832538	-0.08663360079949989	0	0	0	-9.580265031326071	3.615454017148523	8.731737357516527	0.5753494031190074	0.01004174143381081	0	0	0	0	0	0	40.25820056675909	-40.25820056675909	4.90589890007635	83.7214191623638	85.09410137049188	0	0	40.25820056675909	-40.25820056675909	4.90589890007635	83.7214191623638	85.09410137047453	0	0
35.82	1.402796229166055	-0.05142499954924198	-76.60706563981016	0	0.9399999999999999	0	12.22435157671658	-4.51787780180961	5.187826754856762	-4.757946762938191	-0.08304183664787755	0	0	0	-9.978291528368858	3.206519445834633	8.398126923561721	1.943296779228955	0.03391692714094662	0	0	0	0	0	0	40.25934483206037	-40.25934483206037	4.905944631100427	83.72204063623791	85.09405563946981	0	0	40.25934483206037	-40.25934483206037	4.905944631100427	83.72204063623791	85.09405563945246	0	0
35.84	0.9650236689663027	-0.1503352762625915	-75.95072952821135	0	0.9399999999999999	0	12.19500412729262	-4.102302316682609	4.610559497721486	-3.749796672350886	-0.06544629821284997	0	0	0	-10.362614123154	2.569969646496658	7.702096636566112	3.48088568902262	0.06075291615899616	0	0	0	0	0	0	40.26018749792745	-40.26018749792745	4.905978267791243	83.7224977506162	85.09402200278045	0	0	40.26018749792745	-40.26018749792745	4.905978267791243	83.7224977506162	85.0940220027631	0	0
35.86000000000001	0.7414718659786089	-0.1644263251020932	-75.66668739549847	0	0.9399999999999999	0	12.23962045672013	-3.815355165988584	4.287329335901064	-2.5079818811984	-0.04377254140727334	0	0	0	-10.61620837891066	2.05272068776344	3.819229154073697	6.826174578090306	0.1191392217036106	0	0	0	0	0	0	40.28238842826054	-40.28238842826054	4.906736566512945	83.73280195080731	85.09326370409086	0	0	40.28238842826054	-40.28238842826054	4.906736566512945	83.73280195080731	85.09326370407366	0	0
35.88000000000001	0.02846801084582191	-0.3128703205670353	-74.89302040178291	0	0.9399999999999999	0	9.803635558510853	-1.708458923690043	6.549917837543465	-4.422235088972141	-0.07718256259978824	0	0	0	-10.41317306708483	1.130400813001639	1.968800854231372	9.45949098826965	0.1650992633080377	0	0	0	0	0	0	40.2905892669945	-40.2905892669945	4.907026173481266	83.73673737215221	85.09297409713491	0	0	40.2905892669945	-40.2905892669945	4.907026173481266	83.73673737215221	85.0929740971177	0	0
35.90000000000001	-0.2013727182885561	-0.435433472279572	-74.70959716529907	0	0.9399999999999999	0	9.742142596701338	-1.387932397440699	6.394373418962239	-3.573368971192578	-0.06236705393591289	0	0	0	-9.519124884102553	0.9363654110852833	2.032899645612988	12.55713705539121	0.2191633862407622	0	0	0	0	0	0	40.29274979818892	-40.29274979818892	4.907110687878347	83.73788588671346	85.09288958274152	0	0	40.29274979818892	-40.29274979818892	4.907110687878347	83.73788588671346	85.09288958272433	0	0
35.92000000000002	-0.5515274327848346	-0.6905652984793222	-74.4391677404931	0	0.9399999999999999	0	7.47807412451869	-0.7624677412861113	5.529735159172656	-4.505833568386405	-0.07864163131522786	0	0	0	-8.668041845295944	-0.1789244523008736	1.546054115240778	16.01422230007123	0.2795009062825423	0	0	0	0	0	0	40.2945963977176	-40.2945963977176	4.90718372793813	83.73887847552221	85.09281654268487	0	0	40.2945963977176	-40.2945963977176	4.90718372793813	83.73887847552221	85.09281654266768	0	0
